<svg id="visual" viewBox="0 0 900 600" width="900" height="600" xmlns="http://www.w3.org/2000/svg" xmlns:xlink="http://www.w3.org/1999/xlink" version="1.1"><rect x="0" y="0" width="900" height="600" fill="#fff"></rect><path d="M351 0L377.3 10C403.7 20 456.3 40 457.5 60C458.7 80 408.3 100 407 120C405.7 140 453.3 160 483.7 180C514 200 527 220 501.8 240C476.7 260 413.3 280 378.3 300C343.3 320 336.7 340 359.7 360C382.7 380 435.3 400 435.5 420C435.7 440 383.3 460 394.3 480C405.3 500 479.7 520 478.8 540C478 560 402 580 364 590L326 600L0 600L0 590C0 580 0 560 0 540C0 520 0 500 0 480C0 460 0 440 0 420C0 400 0 380 0 360C0 340 0 320 0 300C0 280 0 260 0 240C0 220 0 200 0 180C0 160 0 140 0 120C0 100 0 80 0 60C0 40 0 20 0 10L0 0Z" fill="#45aae2" stroke-linecap="round" stroke-linejoin="miter"></path></svg>